<?xml version="1.0" encoding="UTF-8"?>
<svg width="229.73334" height="341.66666" version="1.1" viewBox="0 0 229.73334 341.66666" xml:space="preserve" xmlns="http://www.w3.org/2000/svg" xmlns:cc="http://creativecommons.org/ns#" xmlns:dc="http://purl.org/dc/elements/1.1/" xmlns:rdf="http://www.w3.org/1999/02/22-rdf-syntax-ns#"><metadata><rdf:RDF><cc:Work rdf:about=""><dc:format>image/svg+xml</dc:format><dc:type rdf:resource="http://purl.org/dc/dcmitype/StillImage"/></cc:Work></rdf:RDF></metadata><g transform="matrix(1.3333333,0,0,-1.3333333,0,341.66667)"><g transform="scale(.1)"><g fill="#009a68"><path transform="matrix(7.5000002,0,0,-7.5000002,0,2562.5001)" d="m115.67969 0.00195313c-5.47187 9.40799977-10.55853 18.24014087-16.222659 27.74414087-7.488-3.072-16.129226-1.822813-24.193359-0.382813 8.447866 8.928 9.216453 19.488219 8.064453 25.824219-0.672 3.36-5.183811 14.39961-7.007813 21.599609-1.728133 7.104-1.727914 16.414813 1.824219 24.382813-38.495865-8.16-67.105074 9.216988-70.3691404 50.208988v16.41601c0.09636 0.768 0.1933594 1.53639 0.1933594 2.40039 15.35996-15.744 51.071507-38.78415 81.503906-20.16015-10.464133 14.016-17.568649 36.09645-13.728515 56.06445 3.84 19.77587 20.735541 36.09481 39.935549 36.38281 19.48772 0 37.53614-18.62272 39.74414-37.63086 2.208-19.008-2.87916-40.70529-13.53516-54.52929 30.528-18.528 66.14391 4.51156 81.50391 20.35156 0-0.96 0.0954-1.91891 0.1914-2.87891v-15.93554c-3.168-40.99202-31.77548-58.464694-70.27148-50.304692 3.552-8.064002 3.64792-17.376469 1.91992-24.480469s-6.43181-18.143905-7.00781-21.503907c-1.152-6.335999-0.38384-16.991922 8.16016-25.919921-8.16-1.44-16.7055-2.687235-24.19336 0.384765-5.7604-9.504-10.84826-18.5292031-16.51172-28.03320287zm-26.591799 34.17578087c11.999999-0.096 17.856029 9.313422 20.832029 17.857422 3.35987 9.6-6.33465 20.158657-4.22265 28.222656 2.0156 7.872002 5.75928 8.545094 9.79101 9.121094 4.22387-0.48 8.15949-0.672328 10.27149-8.736328s-7.48875-18.816609-4.22461-28.224609c3.07186-8.64 8.92968-18.047469 20.92968-17.855469-10.84786 22.751999 10.75185 40.32025 3.83985 58.65625-6.89861 18.30046-18.95769 21.37887-30.74414 22.1543-11.58078-0.87771-23.614623-4.26175-30.408206-22.441409-6.912-18.336 14.783413-35.905907 3.935547-58.753907zm26.400389 127.968746c4.8 4.992 8.73578 14.49535 10.17578 18.52735 1.44014 4.032 3.26435 22.84859-10.17578 23.80859-13.53587-0.864-11.61608-19.68059-10.08008-23.80859 1.53587-4.032 5.47235-13.43935 10.08008-18.52735z"/><path d="m0 672.48h1722.96v-61.199h-1722.96v61.199"/><path transform="matrix(7.5000002,0,0,-7.5000002,0,2562.5001)" d="m24.767578 273.41016c-0.3844 4.80053-1.248063 11.71249-2.591797 20.64062-1.344266 9.21613-2.112562 16.32024-2.976562 21.98438-0.864 5.56773-1.630171 10.55899-2.398438 14.97461-0.768266 4.12813-1.536554 8.06406-2.304687 10.65625 1.823866-0.38386 3.07122-0.67188 4.126953-0.67188 1.056267 0 2.208468 0.28802 3.552734 0.67188 0-4.70418 0.480284-11.42246 1.34375-19.39063 0.864134-8.16 2.016868-18.04863 3.552735-29.56836l15.455078 28.60742c2.495866 4.224 4.416561 8.16094 6.048828 11.61719 1.440133 2.97604 2.304666 6.14219 3.072266 8.73438h1.34375c0.864133-2.4 2.111181-4.99167 3.550781-8.35157 1.632266-3.35989 3.360321-7.00736 4.992187-10.94336 1.920267-3.93586 4.513039-8.16074 7.201172-13.15234 2.880133-4.99227 6.14404-10.65705 9.503906-16.80078 0.383867 1.44 0.672211 3.74401 1.152344 6.81641 0.383867 3.26346 0.76778 6.62453 1.248047 9.88867 0.288 3.16773 0.672047 8.06279 1.248047 14.11133 0.576 6.23954 1.054859 12.19153 1.630859 18.43164 1.536534-0.38386 2.976046-0.67188 4.320313-0.67188 1.152 0 2.783585 0.28802 4.511718 0.67188-3.359999-27.55214-6.23936-50.49546-7.871093-68.25586h-1.439453c-4.8 9.02453-9.889492 18.72031-15.265625 28.32031-5.088 9.6-9.59929 18.0491-13.535157 24.86523-2.592266-4.224-4.128953-7.39389-5.376953-9.41015-1.344266-2.4-3.55032-7.00596-6.814453-13.2461-3.455733-6.624-6.336492-12.38464-8.640625-16.80078-2.207866-4.7036-4.704406-9.50398-6.816406-13.72851zm100.609372 0.76757c-1.53586 0-3.26564 0.1932-4.60937 0.28907-1.24854 0-2.59215 0.28694-4.41602 0.38281h-10.65625c0 4.32027 0.0977 9.02544 0.0977 14.01758v19.39258c0 15.2636-1e-3 26.30207-0.0977 33.40625 5.1844-0.28803 7.77559-0.57618 7.58399-0.57618 1.63173 0 4.22484 0.28907 7.39258 0.28907 3.16826 0.28802 5.66354 0.28711 7.00781 0.28711 2.78373 0 5.37565-0.19245 7.77539-0.48047 5.28-0.57605 9.88987-1.91811 13.92187-3.83789 5.76-2.68803 10.07899-6.62454 12.95899-12 3.072-5.1844 4.60742-11.71215 4.60742-19.48828 0-6.0484-1.15108-11.52104-3.45508-16.12891-2.208-4.60827-5.1845-8.25592-9.3125-10.84766-2.784-1.92026-5.8562-3.35974-9.4082-3.74414-2.496-0.576-5.6645-0.86507-9.3125-0.96094h-3.45508zm54.43164 0.28907c0 7.29586 0.28652 12.86458 0.47852 16.32031 0 3.55213 2e-3 7.29553 0.0977 11.51953 0.096 4.03173 0.0957 8.92852 0.0957 14.40039 0 4.03173 3e-4 7.19945-0.0957 9.69531-0.096 2.68796-0.0971 5.0892-0.28907 7.20118 0 2.11198-0.28711 4.89427-0.28711 8.0625 1.152-0.28803 2.49466-0.57618 4.22266-0.57618s3.64925 0.28815 5.28125 0.57618c-0.288-1.05626-0.38477-2.59076-0.38477-4.31836v-28.80078h2.6875c4.992 0 12.00021 0.28797 21.40821 0.76757-0.096-0.4796-0.0957-1.63104-0.0957-2.8789 0-1.53654-2.9e-4 -2.49611 0.0957-3.16797-5.088 0.67186-10.75202 0.67187-16.41602 0.67187h-7.67969v-18.24023c0-2.49573 0.0957-4.60837 0.0957-6.24024h2.40039c11.136 0 19.29523 0.19159 23.61523 1.43946 0-0.76774-0.28711-1.34465-0.28711-1.72852v-1.53515c0-0.3844 0.28711-1.05578 0.28711-1.24805v-1.91992c-9.312 0.38386-16.70272 0.38281-21.88672 0.38281-5.28 0-9.88775 1e-3 -13.34375-0.38281zm-50.40039 3.16797c2.11187 0 4.12688 0.19246 6.04688 0.48046 3.744 0.48027 6.91356 1.43947 9.60156 2.78321 4.032 2.01613 7.10403 5.3768 8.83203 9.88867 2.112 4.0324 2.78321 9.98359 2.78321 17.18359 0 6.43187-1.15197 12.19129-3.16797 16.60742-2.592 4.31978-6.14396 7.7767-10.75196 9.88868-2.112 0.95989-4.60887 1.82448-7.29687 2.30468-3.168 0.67188-6.7183 0.95899-10.6543 0.95899-2.688 0-6.14354-0.096-10.08008-0.57617-0.0957-4.3198-0.19263-8.25516-0.38476-11.03907v-20.73632c0-9.50414-8.9e-4 -18.33657 0.28711-26.97657 4.512-0.19173 9.31329-0.76757 14.78515-0.76757z"/></g><path d="m777.027 2323.36 90.832 158.75 97.5-162.08s-68.332-58.34-97.5-149.59c-29.168 84.29-90.832 152.92-90.832 152.92" fill="#ef3120"/></g></g></svg>
